<?xml version="1.0" encoding="utf-8"?>
<!-- Generator: Adobe Illustrator 18.0.0, SVG Export Plug-In . SVG Version: 6.00 Build 0)  -->
<!DOCTYPE svg PUBLIC "-//W3C//DTD SVG 1.1//EN" "http://www.w3.org/Graphics/SVG/1.1/DTD/svg11.dtd">
<svg version="1.1" id="Слой_1" xmlns="http://www.w3.org/2000/svg" xmlns:xlink="http://www.w3.org/1999/xlink" x="0px" y="0px"
	 viewBox="279.9 364.3 50 61.5" style="enable-background:new 279.9 364.3 50 61.5;" xml:space="preserve">
<style type="text/css">
	.st0{fill:#ADADAD;}
</style>
<g>
	<g>
		<g>
			<path class="st0" d="M321.8,398.8c-1.7-8.5,6.4-13.5,6.4-13.5s-3.1-4.6-8.5-5.8c-5.2-1.2-7.9,0.2-10.6,1.4
				c-2.7,1.2-3.9,1.2-3.9,1.2c-3.9,0-6.6-4.1-13.9-2.1c-5,1.4-10.2,7.1-11.2,13.9c-1,6.9,1.2,15.6,5,22.6c4.1,6.8,7.9,9.5,10.8,9.5
				c2.9,0,5.8-2.1,9.3-2.5c3.5-0.6,5.6,1.2,8.9,2.1c3.5,1,4.6,0,8.5-3.3c3.9-3.3,7.3-12.7,7.3-12.7S323.5,407.3,321.8,398.8
				L321.8,398.8z"/>
		</g>
	</g>
	<path class="st0" d="M314.2,373.9c3.7-3.9,2.5-9.6,2.5-9.6s-5.2,1-8.9,4.6c-3.5,3.7-2.9,9.5-2.9,9.5S310.6,377.8,314.2,373.9
		L314.2,373.9z"/>
</g>
</svg>
