<?xml version="1.0" encoding="utf-8"?>
<!-- Generator: Adobe Illustrator 18.0.0, SVG Export Plug-In . SVG Version: 6.00 Build 0)  -->
<!DOCTYPE svg PUBLIC "-//W3C//DTD SVG 1.1//EN" "http://www.w3.org/Graphics/SVG/1.1/DTD/svg11.dtd">
<svg version="1.1" id="Слой_1" xmlns="http://www.w3.org/2000/svg" xmlns:xlink="http://www.w3.org/1999/xlink" x="0px" y="0px"
	 viewBox="0 0 50 81.1" style="enable-background:new 0 0 50 81.1;" xml:space="preserve">
<style type="text/css">
	.st0{fill:#FFFFFF;}
</style>
<g>
	<path class="st0" d="M44.9,7.8C40.5,2.6,33.8,0,25,0C16.2,0,9.5,2.6,5.1,7.8C0.7,13,0,19,0,22.2v36.6c0,3.2,0.7,9.2,5.1,14.4
		c4.4,5.2,11.1,7.8,19.9,7.8c8.8,0,15.5-2.6,19.9-7.8C49.3,68.1,50,62,50,58.9V22.2C50,19,49.3,13,44.9,7.8 M25,28.2
		c-1.8,0-3.3-1.5-3.3-3.3v-7.1c0-1.8,1.5-3.3,3.3-3.3c1.8,0,3.3,1.5,3.3,3.3v7.1C28.3,26.8,26.8,28.2,25,28.2 M47.4,58.9
		c0,3.3-1.1,19.6-22.4,19.6C3.7,78.4,2.6,62.1,2.6,58.9V22.2c0-3.2,1-18.9,21.1-19.6v9.4c-2.6,0.6-4.6,3-4.6,5.8v7.1
		c0,2.8,2,5.2,4.6,5.8v10.7c0,0.7,0.6,1.3,1.3,1.3c0.7,0,1.3-0.6,1.3-1.3V30.7c2.6-0.6,4.6-3,4.6-5.8v-7.1c0-2.8-2-5.2-4.6-5.8V2.6
		c20,0.7,21.1,16.4,21.1,19.6V58.9z"/>
</g>
</svg>
