<?xml version="1.0" encoding="utf-8"?>
<!-- Generator: Adobe Illustrator 18.0.0, SVG Export Plug-In . SVG Version: 6.00 Build 0)  -->
<!DOCTYPE svg PUBLIC "-//W3C//DTD SVG 1.1//EN" "http://www.w3.org/Graphics/SVG/1.1/DTD/svg11.dtd">
<svg version="1.1" id="Слой_1" xmlns="http://www.w3.org/2000/svg" xmlns:xlink="http://www.w3.org/1999/xlink" x="0px" y="0px"
	 viewBox="0 0 100 20.1" style="enable-background:new 0 0 100 20.1;" xml:space="preserve">
<style type="text/css">
	.st0{fill:#EA551B;}
	.st1{clip-path:url(#SVGID_2_);fill:url(#SVGID_3_);}
	.st2{clip-path:url(#SVGID_5_);fill:url(#SVGID_6_);}
	.st3{clip-path:url(#SVGID_8_);fill:url(#SVGID_9_);}
	.st4{fill:#3F6D2C;}
	.st5{fill:#FF6801;}
	.st6{filter:url(#Adobe_OpacityMaskFilter);}
	.st7{clip-path:url(#SVGID_11_);fill:url(#SVGID_13_);}
	.st8{clip-path:url(#SVGID_11_);mask:url(#SVGID_12_);fill:url(#SVGID_14_);}
</style>
<g>
	<g>
		<path class="st0" d="M48.8,3.9c-0.8,0.7-2.1,0.4-2.9-0.6c-0.8-1-0.9-2.3-0.1-3c0.8-0.7,2.1-0.4,2.9,0.6
			C49.5,1.9,49.6,3.2,48.8,3.9"/>
	</g>
	<g>
		<defs>
			<path id="SVGID_1_" d="M47.5,8.7l1.3,5c0.4-2.8,3.1-6.2,4.5-7.5L53.5,3C53.5,3,49.9,4.7,47.5,8.7"/>
		</defs>
		<clipPath id="SVGID_2_">
			<use xlink:href="#SVGID_1_"  style="overflow:visible;"/>
		</clipPath>
		
			<linearGradient id="SVGID_3_" gradientUnits="userSpaceOnUse" x1="-212.2477" y1="62.7786" x2="-212.0574" y2="62.7786" gradientTransform="matrix(-41.9904 15.2832 -18.5341 -43.6915 -7693.7393 5993.3857)">
			<stop  offset="0" style="stop-color:#F3D35B"/>
			<stop  offset="0.1505" style="stop-color:#F3CE59"/>
			<stop  offset="0.3334" style="stop-color:#F4BF53"/>
			<stop  offset="0.5321" style="stop-color:#F5A749"/>
			<stop  offset="0.7173" style="stop-color:#F7893D"/>
			<stop  offset="0.8324" style="stop-color:#D1711F"/>
			<stop  offset="0.9388" style="stop-color:#B55F08"/>
			<stop  offset="1" style="stop-color:#AA5800"/>
		</linearGradient>
		<polygon class="st1" points="52.7,1.1 43.6,4.4 48.3,15.6 57.4,12.2 		"/>
	</g>
	<g>
		<defs>
			<path id="SVGID_4_" d="M44.6,15.5l1.4,4.6c1.2-1.6,2.7-4.4,3-7c0-0.4,0.1-0.8,0-1.2c-0.2-0.9-1.7-2.8-1.7-2.8
				C46.7,12.1,45.4,14.3,44.6,15.5"/>
		</defs>
		<clipPath id="SVGID_5_">
			<use xlink:href="#SVGID_4_"  style="overflow:visible;"/>
		</clipPath>
		
			<linearGradient id="SVGID_6_" gradientUnits="userSpaceOnUse" x1="-211.8081" y1="63.0661" x2="-211.6178" y2="63.0661" gradientTransform="matrix(29.8421 -22.4876 -19.6992 -30.7796 7606.9712 -2805.0708)">
			<stop  offset="0" style="stop-color:#FE7F35"/>
			<stop  offset="0.5152" style="stop-color:#E06432"/>
			<stop  offset="0.6196" style="stop-color:#CD5A31"/>
			<stop  offset="0.8293" style="stop-color:#9D4230"/>
			<stop  offset="1" style="stop-color:#722B2E"/>
		</linearGradient>
		<polygon class="st2" points="39.8,12.7 47.5,6.9 53.7,16.5 46,22.3 		"/>
	</g>
	<g>
		<defs>
			<path id="SVGID_7_" d="M41.6,6.2c0.6,0.4,5.2,3.1,7.1,8.3c0.9-3.2-0.4-6.2-1.4-7.3c-2.8-3-6-4.1-6-4.1L41.6,6.2z"/>
		</defs>
		<clipPath id="SVGID_8_">
			<use xlink:href="#SVGID_7_"  style="overflow:visible;"/>
		</clipPath>
		
			<linearGradient id="SVGID_9_" gradientUnits="userSpaceOnUse" x1="-212.9615" y1="63.1412" x2="-212.7713" y2="63.1412" gradientTransform="matrix(-35.4096 6.2437 3.3952 35.4653 -7706.6406 -901.4487)">
			<stop  offset="0" style="stop-color:#003E1E"/>
			<stop  offset="0.3726" style="stop-color:#4D7E27"/>
			<stop  offset="0.6624" style="stop-color:#7BA73C"/>
			<stop  offset="0.7671" style="stop-color:#97BB50"/>
			<stop  offset="0.9189" style="stop-color:#BBD56A"/>
			<stop  offset="1" style="stop-color:#C9DF74"/>
		</linearGradient>
		<polygon class="st3" points="50.6,14.3 41.4,15.9 40.2,3.3 49.4,1.7 		"/>
	</g>
	<g>
		<path class="st4" d="M76.6,14.8c-0.9,0-1.5-0.7-1.5-1.7V9c0-1.1,0.7-1.5,1.8-1.5h5.5c1.5,0,1.9,0.7,1.9,1.7v4.1
			c0,0.9-0.7,1.4-1.5,1.4H76.6z M81.7,13.1c0.3,0,0.4,0,0.4-0.4l0-3.2c0-0.3-0.1-0.4-0.4-0.4l-3.7,0c-0.3,0-0.4,0.1-0.4,0.4v3.2
			c0,0.3,0.1,0.4,0.4,0.4L81.7,13.1z"/>
		<path class="st4" d="M28.2,9.2c0-1.1-0.7-1.7-1.7-1.7h-5.8c-0.9,0-1.6,0.6-1.6,1.6v4.1c0,0.7,0.6,1.5,1.4,1.5h5
			c0.3,0,0.4,0.1,0.4,0.4c0,0.6,0,1.1,0,1.7c0,0.3-0.1,0.4-0.4,0.4l-5.1,0V19l6.3,0c0.6,0,1-0.2,1.3-0.6c0.2-0.2,0.3-0.5,0.3-1
			L28.2,9.2z M25.9,12.7c0,0.3-0.1,0.4-0.4,0.4l-3.7,0c-0.3,0-0.4-0.1-0.4-0.4l0-3.2c0-0.3,0.1-0.4,0.4-0.4l3.7,0
			c0.3,0,0.4,0.1,0.4,0.4L25.9,12.7z"/>
		<path class="st4" d="M64.1,7.6h7.1c1.3,0,2,0.6,2,1.5l0,4.1c0,0.6-0.3,1.2-0.9,1.4c-0.2,0.1-0.4,0.1-0.8,0.1l-4.6,0
			c-0.3,0-0.5,0-0.5,0.5l0,3.6h-2.4V7.6z M70.5,13.1c0.3,0,0.3-0.1,0.3-0.4l0-3.2c0-0.2-0.1-0.3-0.3-0.3l-3.8,0
			c-0.3,0-0.3,0.1-0.3,0.3v3.2c0,0.3,0.1,0.4,0.4,0.4H70.5z"/>
		<path class="st4" d="M62.2,7.6v1.6h-6c-0.2,0-0.3,0.1-0.3,0.3l0,0.7c0,0.1,0.1,0.2,0.2,0.2h4.2c0.5,0,1.1,0.1,1.5,0.4
			c0.5,0.3,0.8,0.8,0.9,1.4c0,0.3,0,0.7,0,1c-0.2,0.9-0.8,1.5-1.8,1.5h-7.3v-1.7H60c0.2,0,0.3-0.1,0.3-0.3l0-0.6
			c0-0.2-0.1-0.3-0.3-0.3h-4.3c-0.3,0-0.6,0-0.9-0.1c-0.6-0.2-1-0.6-1.2-1.2c-0.1-0.5-0.2-1.1,0-1.6c0.2-0.9,1-1.5,2-1.5H62.2z"/>
		<path class="st4" d="M99.4,7.6l0,1.6l-1.6,0c-0.3,0-0.4,0.1-0.4,0.4v3.2c0,0.3,0.1,0.4,0.4,0.4l2.3,0v1.7h-3.1c-0.2,0-0.4,0-0.5,0
			c-0.8-0.1-1.4-0.7-1.4-1.6V9.6c0-0.4-0.1-0.4-0.5-0.4l-0.6,0l0-1.6h0.6c0.4,0,0.4-0.1,0.4-0.4c0-1.1,0-3.3,0-3.3h2.4
			c0,0,0,2.2,0,3.3c0,0.4,0.1,0.4,0.4,0.4H99.4z"/>
		<path class="st4" d="M11.1,7.6h5.2c0.7,0.1,1.2,0.6,1.3,1.4c0,0.3,0,0.9,0,0.9h-2.4V9.4c0-0.2-0.1-0.3-0.3-0.3l-1.3,0
			c-0.2,0-0.3,0.1-0.3,0.3l0,5.3h-2.4V7.6z"/>
		<path class="st4" d="M90.5,9.9V9.6c0-0.3-0.1-0.4-0.4-0.4l-1.1,0c-0.3,0-0.4,0.1-0.4,0.4l0,5.3h-2.4V7.6h5.2
			c0.7,0,1.2,0.5,1.3,1.2c0,0.3,0.1,1,0.1,1H90.5z"/>
		<path class="st5" d="M40.2,7.6h-9.8l0,7.2h2.4l0-5.3c0-0.3,0.1-0.3,0.4-0.3l1.5,0c0.2,0,0.3,0.1,0.3,0.3v5.4h2.3l0-5.7l1.8,0
			c0.2,0,0.4,0.1,0.4,0.3v5.4h2.4V9C41.7,8.1,41.1,7.6,40.2,7.6"/>
	</g>
	<g>
		<defs>
			<path id="SVGID_10_" d="M35.8,7.6c0,0,0.6,0,1,0.5c0.4,0.4,0.4,1.1,0.4,1.1h1.8l0.3-1.5H35.8z"/>
		</defs>
		<clipPath id="SVGID_11_">
			<use xlink:href="#SVGID_10_"  style="overflow:visible;"/>
		</clipPath>
		<defs>
			<filter id="Adobe_OpacityMaskFilter" filterUnits="userSpaceOnUse" x="35.8" y="7.6" width="3.5" height="1.5">
				<feColorMatrix  type="matrix" values="1 0 0 0 0  0 1 0 0 0  0 0 1 0 0  0 0 0 1 0"/>
			</filter>
		</defs>
		<mask maskUnits="userSpaceOnUse" x="35.8" y="7.6" width="3.5" height="1.5" id="SVGID_12_">
			<g class="st6">
				
					<linearGradient id="SVGID_13_" gradientUnits="userSpaceOnUse" x1="-209.5667" y1="62.4898" x2="-209.3764" y2="62.4898" gradientTransform="matrix(18.5642 0 0 -18.5642 3926.2615 1168.4084)">
					<stop  offset="0" style="stop-color:#B3B3B3"/>
					<stop  offset="0.2288" style="stop-color:#B0B0B0"/>
					<stop  offset="0.3813" style="stop-color:#A7A7A7"/>
					<stop  offset="0.5116" style="stop-color:#989898"/>
					<stop  offset="0.6295" style="stop-color:#828282"/>
					<stop  offset="0.7389" style="stop-color:#676767"/>
					<stop  offset="0.8421" style="stop-color:#454545"/>
					<stop  offset="0.9385" style="stop-color:#1D1D1D"/>
					<stop  offset="1" style="stop-color:#000000"/>
				</linearGradient>
				<rect x="35.8" y="7.6" class="st7" width="3.5" height="1.5"/>
			</g>
		</mask>
		
			<linearGradient id="SVGID_14_" gradientUnits="userSpaceOnUse" x1="-209.5667" y1="62.4898" x2="-209.3764" y2="62.4898" gradientTransform="matrix(18.5642 0 0 -18.5642 3926.2615 1168.4084)">
			<stop  offset="0" style="stop-color:#A04944"/>
			<stop  offset="0.3439" style="stop-color:#A34B44"/>
			<stop  offset="0.5758" style="stop-color:#AC5044"/>
			<stop  offset="0.7746" style="stop-color:#BB5944"/>
			<stop  offset="0.9538" style="stop-color:#D06543"/>
			<stop  offset="1" style="stop-color:#D76943"/>
		</linearGradient>
		<rect x="35.8" y="7.6" class="st8" width="3.5" height="1.5"/>
	</g>
	<g>
		<path class="st4" d="M1.5,14.8C0.6,14.8,0,14,0,13.1V9C0,8,0.7,7.6,1.8,7.6h5.5c1.5,0,1.9,0.7,1.9,1.7v4.1c0,0.9-0.7,1.4-1.5,1.4
			H1.5z M6.5,13.1c0.3,0,0.4,0,0.4-0.4l0-3.2c0-0.3-0.1-0.4-0.4-0.4l-3.7,0c-0.3,0-0.4,0.1-0.4,0.4v3.2c0,0.3,0.1,0.4,0.4,0.4
			L6.5,13.1z"/>
	</g>
</g>
</svg>
